<mxfile host="app.diagrams.net" modified="2021-04-23T00:04:08.312Z" agent="5.0 (Macintosh; Intel Mac OS X 11_2_3) AppleWebKit/537.36 (KHTML, like Gecko) Chrome/89.0.4389.114 Safari/537.36" etag="8UlbkTvgaKq0cfx9z28a" version="14.5.10" type="github">
  <diagram id="oAe-mXcNQC-P1OVYjn-o" name="Page-1">
    <mxGraphModel dx="1186" dy="707" grid="1" gridSize="10" guides="1" tooltips="1" connect="1" arrows="1" fold="1" page="1" pageScale="1" pageWidth="850" pageHeight="1100" math="0" shadow="0">
      <root>
        <mxCell id="0" />
        <mxCell id="1" parent="0" />
        <mxCell id="k2x_sUXeTvUefhEuredL-1" value="" style="rounded=0;whiteSpace=wrap;html=1;" vertex="1" parent="1">
          <mxGeometry x="240" y="810" width="120" height="60" as="geometry" />
        </mxCell>
        <mxCell id="k2x_sUXeTvUefhEuredL-3" value="&lt;span style=&quot;font-size: 20px&quot;&gt;Make a change to your project code&lt;/span&gt;" style="rounded=0;whiteSpace=wrap;html=1;" vertex="1" parent="1">
          <mxGeometry x="150" y="190" width="540" height="60" as="geometry" />
        </mxCell>
        <mxCell id="k2x_sUXeTvUefhEuredL-4" value="rebuild the image, specifying a new image verison&lt;br style=&quot;font-size: 20px;&quot;&gt;" style="rounded=0;whiteSpace=wrap;html=1;fontSize=20;" vertex="1" parent="1">
          <mxGeometry x="150" y="280" width="540" height="60" as="geometry" />
        </mxCell>
        <mxCell id="k2x_sUXeTvUefhEuredL-5" value="&lt;font style=&quot;font-size: 20px&quot;&gt;In the deployment config file, update the version of the image&lt;/font&gt;" style="rounded=0;whiteSpace=wrap;html=1;" vertex="1" parent="1">
          <mxGeometry x="150" y="370" width="540" height="60" as="geometry" />
        </mxCell>
        <mxCell id="k2x_sUXeTvUefhEuredL-9" value="Run the command&lt;b&gt;&lt;br&gt;Kubectl apply -f [deployment file]&lt;/b&gt;" style="rounded=0;whiteSpace=wrap;html=1;fontSize=20;" vertex="1" parent="1">
          <mxGeometry x="150" y="470" width="540" height="60" as="geometry" />
        </mxCell>
        <mxCell id="k2x_sUXeTvUefhEuredL-10" value="&lt;font style=&quot;font-size: 25px&quot;&gt;Updating the image Used By a &lt;br&gt;Deployment -Method # 1&lt;/font&gt;" style="text;html=1;align=center;verticalAlign=middle;resizable=0;points=[];autosize=1;strokeColor=none;strokeWidth=4;fontStyle=1" vertex="1" parent="1">
          <mxGeometry x="205" y="100" width="380" height="40" as="geometry" />
        </mxCell>
        <mxCell id="k2x_sUXeTvUefhEuredL-12" value="Steps" style="text;html=1;align=center;verticalAlign=middle;resizable=0;points=[];autosize=1;strokeColor=none;fontSize=20;" vertex="1" parent="1">
          <mxGeometry x="10" y="190" width="70" height="30" as="geometry" />
        </mxCell>
        <mxCell id="k2x_sUXeTvUefhEuredL-14" value="" style="endArrow=classic;html=1;fontSize=20;" edge="1" parent="1">
          <mxGeometry width="50" height="50" relative="1" as="geometry">
            <mxPoint x="100" y="190" as="sourcePoint" />
            <mxPoint x="100" y="520" as="targetPoint" />
            <Array as="points">
              <mxPoint x="100" y="280" />
            </Array>
          </mxGeometry>
        </mxCell>
      </root>
    </mxGraphModel>
  </diagram>
</mxfile>
